<svg xmlns="http://www.w3.org/2000/svg" width="256" height="256" viewBox="0 0 256 256"><g transform="translate(0 -796.362)"><path d="M30 796.362c-16.62 0-30 13.38-30 30v196c0 16.62 13.38 30 30 30h36.52l26.414-97.984h-55.56l61.233-158.016H30zm167.363 0l-52.912 112.56 80.814 1.01-145.118 142.43H226c16.62 0 30-13.38 30-30v-196c0-16.62-13.38-30-30-30h-28.637z" fill="#3f51b5"/><rect width="114.286" height="152.857" x="407.143" y="602.362" rx="30" ry="30" fill="#fff"/><rect width="155.714" height="155.714" x="398.571" y="650.934" rx="30" ry="30" fill="#fff"/></g></svg>